<?xml version="1.0" encoding="UTF-8"?>
<svg id="Layer_1" xmlns="http://www.w3.org/2000/svg" version="1.1" viewBox="0 0 577.4 800">
  <!-- Generator: Adobe Illustrator 30.5.1, SVG Export Plug-In . SVG Version: 2.1.4 Build 3)  -->
  <defs>
    <style>
      .st0 {
        fill: #b9cb46;
      }

      .st1 {
        fill: #4f8ecb;
      }

      .st2 {
        fill: #fad73a;
      }

      .st3 {
        fill: #4f8ecb;
      }
    </style>
  </defs>
  <path class="st2" d="M94,151.4h-4.3c-1.3,2.7-2.8,5.3-4.7,7.8-1.9,2.5-4.3,4.7-7.2,6.6-3,1.9-6.5,3.5-10.6,4.6-4.1,1.1-9,1.7-14.8,1.7s-14.3-1.3-20.6-4c-6.4-2.7-11.9-6.6-16.6-11.8s-8.4-11.6-11.1-19.2c-2.7-7.6-4-16.2-4-26v-4.3c0-9.6,1.4-18.2,4.2-25.8s6.7-13.9,11.6-19.2c4.9-5.2,10.6-9.2,17.1-11.9,6.5-2.7,13.4-4.1,20.6-4.1s17.3,1.8,22.9,5.4c5.6,3.6,10.1,8.7,13.3,15.3h4.3V0h30.4v168.8h-30.4v-17.4h0ZM62.2,143.2c9.5,0,17.2-3,23-9,5.9-6,8.8-13.9,8.8-23.8v-2.9c0-9.8-2.9-17.7-8.8-23.8-5.9-6-13.5-9-23-9s-17.2,2.9-23,8.8c-5.9,5.9-8.8,13.9-8.8,24v2.9c0,10.1,2.9,18.1,8.8,24,5.9,5.9,13.5,8.8,23,8.8Z"/>
  <path class="st3" d="M186.1,105.1v63.6h-31.8V0h66.1c8.7,0,16.2,1.4,22.7,4.2,6.4,2.8,11.8,6.5,16,11.1,4.2,4.6,7.5,9.8,9.6,15.7,2.2,5.9,3.3,11.9,3.3,18v5.8c0,6.3-1.1,12.4-3.3,18.4-2.2,6-5.4,11.4-9.6,16.2-4.3,4.7-9.6,8.5-16,11.5-6.4,2.9-14,4.3-22.7,4.3h-34.2,0ZM186.1,74.7h31.1c7.1,0,12.7-1.9,16.8-5.8,4.1-3.9,6.1-8.8,6.1-15v-2.9c0-6.1-2.1-11.1-6.1-15-4.1-3.9-9.7-5.8-16.8-5.8h-31.1v44.4h0Z"/>
  <path class="st3" d="M330,118.9c.2,3.5,1,6.8,2.5,9.8,1.5,3,3.6,5.5,6.3,7.7,2.7,2.2,5.7,3.9,9.2,5.1,3.5,1.2,7.1,1.8,11,1.8,7.6,0,13.3-1.3,17.4-4,4-2.7,6.9-5.8,8.7-9.5l26,14.5c-1.5,3.1-3.5,6.2-6,9.5-2.6,3.3-5.9,6.3-10,9-4.1,2.7-9.1,5-15,6.7-5.9,1.8-12.7,2.7-20.6,2.7s-17.2-1.5-24.6-4.3c-7.4-2.9-13.8-7.1-19.2-12.5-5.4-5.5-9.6-12.1-12.5-20-3-7.9-4.5-16.8-4.5-26.8v-1.5c0-9.2,1.6-17.5,4.7-25.1,3.1-7.6,7.4-14,12.9-19.3,5.5-5.3,11.9-9.5,19.2-12.4,7.3-3,15.2-4.5,23.5-4.5s19.1,1.8,26.5,5.4c7.4,3.6,13.5,8.2,18.3,13.8,4.8,5.5,8.4,11.6,10.6,18.3,2.2,6.7,3.4,13.2,3.4,19.4v16.2h-87.8,0ZM358.8,73.3c-7.7,0-14,2-18.8,5.9s-7.9,8.5-9.4,13.6h56.4c-1-5.6-4-10.3-9-14-5.1-3.7-11.5-5.5-19.2-5.5h0Z"/>
  <path class="st3" d="M445.1,0h121.5v30.4h-44.9v138.4h-31.8V30.4h-44.9V0h0Z"/>
  <path class="st2" d="M86.1,362.1h4.3v-152.9h31.8v168.8h-62.2l-19.8-152.9h-4.3v152.9H4.1v-168.8h62.2l19.8,152.9Z"/>
  <path class="st3" d="M150,258.4h50.6v17.4h4.3c2.2-6.6,6.1-11.7,11.5-15.3,5.4-3.6,11.9-5.4,19.4-5.4,11.9,0,21.5,3.7,28.7,11.2,7.2,7.5,10.8,18.8,10.8,34.1v5.3l-31.3,2.9v-3.4c0-6.6-1.7-11.9-5.1-15.8-3.4-3.9-8.4-5.9-15.2-5.9s-12.1,2.3-15.9,7c-3.9,4.7-5.8,11.3-5.8,20v38.6h27.5v28.9h-82.5v-28.9h24.6v-61.7h-21.7v-28.9h0Z"/>
  <path class="st3" d="M410.6,349.1v28.9h-104.2v-50.6l75.2-36.7v-4.3h-73.8v-28h99.8v49.2l-75.2,37.1v4.3h78.1ZM399.2,207.8l-20.2,32.8h-41.5l-20.2-32.8h29.2l10.4,21.2h2.9l10.4-21.2h29.2Z"/>
  <path class="st3" d="M534.5,341.9h-57.4l-8.2,36.2h-33.3l40.3-168.8h59.8l40.3,168.8h-33.3l-8.2-36.2h0ZM483.9,311.5h43.6l-19.5-86.3h-4.3l-19.8,86.3h0Z"/>
  <path class="st2" d="M10.3,558.4h40.5v-61.7H13.2v-28.9h68v90.7h34.7v28.9H10.3v-28.9ZM88.7,432.3c0,3.2-.6,6.2-1.8,9-1.2,2.8-2.8,5.2-4.9,7.2-2.1,2-4.5,3.6-7.3,4.8-2.8,1.2-5.8,1.8-8.8,1.8s-6.2-.6-8.9-1.8c-2.7-1.2-5.2-2.8-7.2-4.8-2.1-2-3.7-4.4-4.9-7.2-1.2-2.8-1.8-5.8-1.8-9s.6-6.2,1.8-9c1.2-2.8,2.8-5.2,4.9-7.2,2.1-2,4.5-3.6,7.2-4.8,2.7-1.2,5.7-1.8,8.9-1.8s6,.6,8.8,1.8c2.8,1.2,5.3,2.8,7.3,4.8s3.7,4.4,4.9,7.2c1.2,2.8,1.8,5.8,1.8,9Z"/>
  <path class="st1" d="M156.7,418.5h31.8v138.4h76.7v30.4h-108.5v-168.8h0Z"/>
  <path class="st3" d="M343.3,511.6h5.8l31.8-43.9h33.3v1.5l-38.6,54.7v4.3l42.4,57.6v1.5h-34.7l-34.2-46.8h-5.8v46.8h-30.4v-168.8h30.4v93.1h0Z"/>
  <path class="st3" d="M489.9,528h-7.2l-48.5-109.5h34.7l34.7,80.5h4.3l34.7-80.5h34.7l-48.5,109.5h-7.2v59.3h-31.8v-59.3h0Z"/>
  <g>
    <path class="st0" d="M125.8,765.9v30.7H5.8v-33.7c0-8.9,1.3-16.6,4-22.9,2.7-6.3,6.5-11.7,11.5-16.1,5-4.4,10.9-8,17.9-10.9,7-2.8,14.9-5.2,23.7-7.2,6.5-1.5,11.8-3.1,16-5,4.1-1.9,7.4-4,9.9-6.3,2.4-2.4,4.1-5,5-7.8.9-2.8,1.3-6.1,1.3-9.6,0-6.8-2.5-12.5-7.4-17.1-5-4.6-11.8-6.8-20.6-6.8s-16.7,2.8-22.2,8.4c-5.5,5.6-8.3,13.4-8.3,23.3v10.7H4.3v-13.7c0-8,1.4-15.6,4.3-22.8,2.8-7.2,6.9-13.6,12.2-19,5.3-5.4,11.7-9.8,19.4-12.9,7.6-3.2,16.3-4.8,25.9-4.8s19.2,1.5,26.8,4.5c7.6,3,14,7,19.1,11.8,5.1,4.9,8.9,10.5,11.5,17,2.5,6.4,3.8,13,3.8,19.9v2.9c0,14.3-4,26.2-12.1,35.6-8,9.4-21.2,16.3-39.4,20.5-7.6,1.8-13.9,3.6-18.9,5.5-5,1.9-8.8,3.9-11.6,6.2-2.8,2.3-4.7,4.8-5.7,7.4-1.1,2.7-1.6,5.7-1.6,9.1v2.9h87.8Z"/>
    <path class="st0" d="M150.9,692.2c0-22.1,5.6-39.3,16.7-51.5,11.1-12.2,26.5-18.3,46.2-18.3s35.1,6.1,46.2,18.3c11.1,12.2,16.7,29.4,16.7,51.5v38c0,22.8-5.6,40.1-16.7,52-11.1,11.9-26.5,17.8-46.2,17.8s-35.1-5.9-46.2-17.8c-11.1-11.9-16.7-29.2-16.7-52v-38ZM213.8,770.7c5.9,0,10.7-.9,14.6-2.8,3.9-1.9,7.1-4.5,9.5-7.9,2.4-3.4,4.1-7.5,5.1-12.2,1-4.7,1.5-9.9,1.5-15.6v-42c0-5.4-.6-10.4-1.7-15.1-1.1-4.7-2.9-8.8-5.4-12.2-2.4-3.4-5.6-6.1-9.5-8.2-3.9-2-8.6-3-14.1-3s-10.2,1-14.1,3c-3.9,2-7.1,4.8-9.5,8.2-2.4,3.4-4.2,7.5-5.4,12.2-1.1,4.7-1.7,9.8-1.7,15.1v42c0,5.7.5,10.9,1.5,15.6,1,4.7,2.7,8.8,5.1,12.2,2.4,3.4,5.6,6.1,9.5,7.9,3.9,1.9,8.8,2.8,14.6,2.8ZM193.3,711.2c0-5.5,2-10.3,6.1-14.4,4.1-4.1,8.9-6.1,14.4-6.1s10.3,2,14.4,6.1c4.1,4.1,6.1,8.9,6.1,14.4s-2,10.3-6.1,14.4c-4.1,4.1-8.9,6.1-14.4,6.1s-10.3-2-14.4-6.1c-4.1-4.1-6.1-8.9-6.1-14.4Z"/>
    <path class="st0" d="M424.3,765.9v30.7h-120v-33.7c0-8.9,1.3-16.6,4-22.9,2.7-6.3,6.5-11.7,11.5-16.1,5-4.4,10.9-8,17.9-10.9,7-2.8,14.9-5.2,23.7-7.2,6.5-1.5,11.8-3.1,16-5,4.1-1.9,7.4-4,9.9-6.3,2.4-2.4,4.1-5,5-7.8.9-2.8,1.3-6.1,1.3-9.6,0-6.8-2.5-12.5-7.4-17.1-5-4.6-11.8-6.8-20.6-6.8s-16.7,2.8-22.2,8.4c-5.5,5.6-8.3,13.4-8.3,23.3v10.7h-32.2v-13.7c0-8,1.4-15.6,4.3-22.8,2.8-7.2,6.9-13.6,12.2-19,5.3-5.4,11.7-9.8,19.4-12.9,7.6-3.2,16.3-4.8,25.9-4.8s19.2,1.5,26.8,4.5c7.6,3,14,7,19.1,11.8,5.1,4.9,8.9,10.5,11.5,17,2.5,6.4,3.8,13,3.8,19.9v2.9c0,14.3-4,26.2-12.1,35.6-8,9.4-21.2,16.3-39.4,20.5-7.6,1.8-13.9,3.6-18.9,5.5-5,1.9-8.8,3.9-11.6,6.2-2.8,2.3-4.7,4.8-5.7,7.4-1.1,2.7-1.6,5.7-1.6,9.1v2.9h87.8Z"/>
    <path class="st0" d="M538,674.1c0-5.7-2.1-10.6-6.2-14.8-4.1-4.1-10.6-6.2-19.4-6.2s-15.7,2.6-20.9,7.7c-5.1,5.1-7.7,11.8-7.7,20.1v22h4.4c2.8-5.7,7.2-10.3,13.4-13.8,6.2-3.5,13.2-5.2,21-5.2s13.6,1.3,19.8,3.8c6.2,2.5,11.5,6.1,16.1,10.7,4.5,4.6,8.1,10.3,10.7,17,2.6,6.7,3.9,14.2,3.9,22.7v2.9c0,8.6-1.4,16.5-4.3,23.8-2.8,7.2-6.9,13.5-12.2,18.7-5.3,5.2-11.7,9.3-19.1,12.2-7.5,2.9-15.9,4.4-25.1,4.4s-16.4-1.4-23.8-4.1c-7.4-2.8-13.8-6.6-19.3-11.6-5.4-5-9.8-10.9-12.9-17.8-3.2-6.9-4.8-14.5-4.8-22.8v-62.2c0-8.9,1.6-17.1,4.9-24.4,3.3-7.3,7.6-13.5,13.2-18.7,5.5-5.1,11.9-9.1,19.1-11.8,7.2-2.8,14.9-4.1,23-4.1s15.7,1.2,22.8,3.5c7.1,2.4,13.3,5.8,18.5,10.2,5.3,4.5,9.4,9.9,12.4,16.3,3,6.4,4.5,13.6,4.5,21.6h-32.2ZM512.4,769.3c8.3,0,15.1-2.5,20.5-7.4,5.4-5,8-11.6,8-19.9s-2.7-14.9-8-19.9c-5.4-5-12.2-7.4-20.5-7.4s-15.1,2.5-20.5,7.4c-5.4,5-8,11.6-8,19.9s2.7,14.9,8,19.9c5.4,5,12.2,7.4,20.5,7.4Z"/>
  </g>
</svg>